# xmcd
#
# Track frame offsets:
#	150
#	17512
#	37333
#	58606
#	77909
#	91882
#	109244
#	129065
#	150341
#	169643
#
# Disc length: 2448 seconds
#
# Revision: 1
# Processed by: cddbd v1.5.1PL2 Copyright (c) Steve Scherf et al.
# Submitted via: audiograbber 1.83.01
#
DISCID=6f098e0a
DTITLE=karaoke - BCI41054-2_Male Country Greats
DYEAR=1900
DGENRE=
TTITLE0=alan jackson - monday morning church
TTITLE1=big and rich - holy water
TTITLE2=blake shelton - some beach
TTITLE3=brooks and dunn - that's what it's all about
TTITLE4=gretchen wilson - when i think about cheatin'
TTITLE5=jamie o'neil - trying to find atlantis
TTITLE6=keith urban - you're my better half
TTITLE7=kenny chesney - woman with you, the
TTITLE8=lee ann womack - i may hate myself in the morning
TTITLE9=martina mcbride - god's will
EXTD=
EXTT0=
EXTT1=
EXTT2=
EXTT3=
EXTT4=
EXTT5=
EXTT6=
EXTT7=
EXTT8=
EXTT9=
PLAYORDER=
